<svg version="1.1" id="Layer_1" xmlns="http://www.w3.org/2000/svg" xmlns:xlink="http://www.w3.org/1999/xlink" x="0px" y="0px"
	 width="100%" viewBox="0 0 130 130" xml:space="preserve">

<path fill="#FF500E" opacity="1.000000" stroke="none"
	d="
M33.217365,109.854980
	C24.237532,108.805145 17.929573,104.849068 13.905035,96.920876
	C12.520482,94.193344 9.079782,92.584473 7.022472,90.097244
	C5.648451,88.436104 3.964468,85.879517 4.352231,84.159424
	C5.095668,80.861572 8.607746,80.552818 10.833153,82.224693
	C14.852324,85.244171 19.089413,88.505219 21.800024,92.612694
	C26.075529,99.091492 29.731123,101.532242 38.167370,100.484291
	C38.584351,96.337532 39.010239,92.102219 39.496147,87.270012
	C38.300270,86.835876 36.836765,86.226410 35.327316,85.768349
	C12.861699,78.950775 2.173264,50.592976 14.305141,30.429609
	C15.612735,28.256367 15.755684,25.292120 16.096041,22.650621
	C16.497818,19.532454 16.248253,16.319162 16.770578,13.229877
	C18.190725,4.830462 20.879055,3.029496 29.111601,5.100201
	C32.305111,5.903453 35.590176,7.028156 38.329212,8.790322
	C42.320168,11.357919 46.174950,11.011498 50.637829,10.662428
	C58.543797,10.044053 66.566673,10.377128 74.500839,10.907433
	C78.097748,11.147843 81.104568,11.086697 84.454536,9.301930
	C88.488419,7.152791 93.025215,5.758838 97.499115,4.679928
	C101.592422,3.692798 105.670090,5.430162 105.395866,9.907976
	C104.458946,25.206402 114.899200,38.297043 113.103195,53.772484
	C111.175110,70.385963 103.021416,80.929794 86.906761,85.995468
	C85.965332,86.291412 85.055130,86.686707 85.070808,86.680786
	C85.070808,95.751770 85.127289,104.330986 85.043335,112.908844
	C85.009178,116.398186 86.223068,121.203644 80.726524,121.326927
	C75.193123,121.451035 76.209084,116.697655 76.162766,113.151970
	C76.097473,108.153618 76.620926,103.092949 75.992592,98.173889
	C75.490608,94.244072 74.088646,90.258720 72.273613,86.714066
	C70.378120,83.012276 71.003906,80.166870 75.086388,79.160355
	C78.473572,78.325272 81.996590,77.963692 85.309448,76.917458
	C103.147324,71.284073 110.682648,48.459690 99.601997,33.262821
	C97.437035,30.293629 96.644203,27.810354 97.511810,24.161108
	C98.250900,21.052418 97.664513,17.628593 97.664513,12.727427
	C92.923737,15.036560 89.135811,17.171431 85.123474,18.727776
	C82.696106,19.669325 79.770477,20.495768 77.327950,20.026030
	C66.860130,18.012896 56.525444,18.019768 46.079987,20.140553
	C43.930832,20.576906 41.305126,19.888077 39.190273,19.013615
	C34.961899,17.265234 30.935076,15.029407 26.825029,12.994856
	C26.315157,13.294557 25.805286,13.594256 25.295416,13.893956
	C25.485683,17.748573 25.902496,21.610342 25.781143,25.455124
	C25.708496,27.756756 25.454973,30.535650 24.155384,32.240799
	C11.306449,49.099472 20.599169,74.052162 41.363445,78.003532
	C42.180710,78.159058 43.017742,78.208443 43.837986,78.350906
	C53.199203,79.976883 53.468742,80.724342 49.215736,89.343903
	C48.159397,91.484779 47.787975,94.125900 47.711075,96.556366
	C47.505657,103.048950 47.646572,109.552094 47.618656,116.050896
	C47.605694,119.068970 46.531471,121.478500 43.109451,121.411560
	C39.798347,121.346786 38.599152,119.030083 38.561501,115.986374
	C38.539299,114.191399 38.557446,112.395920 38.557446,110.313553
	C36.577179,110.141182 35.120838,110.014412 33.217365,109.854980
z"/>
</svg>
