<svg version="1.1" id="Layer_1" xmlns="http://www.w3.org/2000/svg" xmlns:xlink="http://www.w3.org/1999/xlink" x="0px" y="0px"
     width="100%" viewBox="0 0 965 130" xml:space="preserve">
<path fill="#FF753F" opacity="1.000000" stroke="none"
      d="
M33.217365,109.854980
	C24.237532,108.805145 17.929573,104.849068 13.905035,96.920876
	C12.520482,94.193344 9.079782,92.584473 7.022472,90.097244
	C5.648451,88.436104 3.964468,85.879517 4.352231,84.159424
	C5.095668,80.861572 8.607746,80.552818 10.833153,82.224693
	C14.852324,85.244171 19.089413,88.505219 21.800024,92.612694
	C26.075529,99.091492 29.731123,101.532242 38.167370,100.484291
	C38.584351,96.337532 39.010239,92.102219 39.496147,87.270012
	C38.300270,86.835876 36.836765,86.226410 35.327316,85.768349
	C12.861699,78.950775 2.173264,50.592976 14.305141,30.429609
	C15.612735,28.256367 15.755684,25.292120 16.096041,22.650621
	C16.497818,19.532454 16.248253,16.319162 16.770578,13.229877
	C18.190725,4.830462 20.879055,3.029496 29.111601,5.100201
	C32.305111,5.903453 35.590176,7.028156 38.329212,8.790322
	C42.320168,11.357919 46.174950,11.011498 50.637829,10.662428
	C58.543797,10.044053 66.566673,10.377128 74.500839,10.907433
	C78.097748,11.147843 81.104568,11.086697 84.454536,9.301930
	C88.488419,7.152791 93.025215,5.758838 97.499115,4.679928
	C101.592422,3.692798 105.670090,5.430162 105.395866,9.907976
	C104.458946,25.206402 114.899200,38.297043 113.103195,53.772484
	C111.175110,70.385963 103.021416,80.929794 86.906761,85.995468
	C85.965332,86.291412 85.055130,86.686707 85.070808,86.680786
	C85.070808,95.751770 85.127289,104.330986 85.043335,112.908844
	C85.009178,116.398186 86.223068,121.203644 80.726524,121.326927
	C75.193123,121.451035 76.209084,116.697655 76.162766,113.151970
	C76.097473,108.153618 76.620926,103.092949 75.992592,98.173889
	C75.490608,94.244072 74.088646,90.258720 72.273613,86.714066
	C70.378120,83.012276 71.003906,80.166870 75.086388,79.160355
	C78.473572,78.325272 81.996590,77.963692 85.309448,76.917458
	C103.147324,71.284073 110.682648,48.459690 99.601997,33.262821
	C97.437035,30.293629 96.644203,27.810354 97.511810,24.161108
	C98.250900,21.052418 97.664513,17.628593 97.664513,12.727427
	C92.923737,15.036560 89.135811,17.171431 85.123474,18.727776
	C82.696106,19.669325 79.770477,20.495768 77.327950,20.026030
	C66.860130,18.012896 56.525444,18.019768 46.079987,20.140553
	C43.930832,20.576906 41.305126,19.888077 39.190273,19.013615
	C34.961899,17.265234 30.935076,15.029407 26.825029,12.994856
	C26.315157,13.294557 25.805286,13.594256 25.295416,13.893956
	C25.485683,17.748573 25.902496,21.610342 25.781143,25.455124
	C25.708496,27.756756 25.454973,30.535650 24.155384,32.240799
	C11.306449,49.099472 20.599169,74.052162 41.363445,78.003532
	C42.180710,78.159058 43.017742,78.208443 43.837986,78.350906
	C53.199203,79.976883 53.468742,80.724342 49.215736,89.343903
	C48.159397,91.484779 47.787975,94.125900 47.711075,96.556366
	C47.505657,103.048950 47.646572,109.552094 47.618656,116.050896
	C47.605694,119.068970 46.531471,121.478500 43.109451,121.411560
	C39.798347,121.346786 38.599152,119.030083 38.561501,115.986374
	C38.539299,114.191399 38.557446,112.395920 38.557446,110.313553
	C36.577179,110.141182 35.120838,110.014412 33.217365,109.854980
M965.085632,69.574730
	C965.121277,79.346832 965.076233,88.720917 965.098755,98.561188
	C964.320801,111.571899 958.344727,120.914330 946.914124,126.035591
	C935.867126,130.984985 925.086243,129.607086 915.484558,122.043007
	C912.931519,120.031784 910.487915,117.452255 909.065247,114.599449
	C908.235901,112.936165 908.774597,109.263542 910.076416,108.227821
	C911.451416,107.133804 914.508118,107.864594 916.741150,108.278465
	C917.650024,108.446915 918.349243,109.859627 919.101440,110.742393
	C924.823730,117.458534 933.739929,119.921753 941.613220,116.947754
	C949.643005,113.914642 954.310852,106.714882 954.190674,96.895554
	C943.188843,104.195137 931.764221,106.027855 919.985046,99.837906
	C912.287903,95.793053 907.186768,89.386642 904.935486,80.904663
	C900.434021,63.944782 911.210083,46.343761 928.159241,42.886902
	C945.869934,39.274715 962.290833,50.991230 965.085632,69.574730
M914.908508,75.176323
	C915.894836,83.690338 920.822571,89.228905 928.654419,91.800491
	C937.115784,94.578751 945.675964,91.623955 950.717773,84.397919
	C955.374573,77.723534 955.686401,70.432564 951.872559,63.198704
	C947.783813,55.443375 938.312012,51.407742 929.834167,53.579105
	C920.376831,56.001362 915.099548,63.301716 914.908508,75.176323
M756.085938,43.000069
	C756.038879,53.991779 756.396362,64.504196 755.860962,74.970947
	C754.722046,97.238693 730.472656,110.584534 710.902710,99.978630
	C695.858521,91.825455 690.410645,72.492035 699.013062,57.784920
	C707.804260,42.755096 727.333313,37.974941 741.876099,47.280712
	C742.798645,47.871059 743.791809,48.351048 745.437744,49.261688
	C745.437744,41.480946 745.435303,34.372349 745.439697,27.263750
	C745.440613,25.765162 745.380066,24.259678 745.498962,22.769440
	C745.754211,19.572792 747.284424,17.180223 750.681763,17.181702
	C754.255249,17.183254 756.052795,19.464020 756.071716,23.013187
	C756.106384,29.508661 756.084412,36.004436 756.085938,43.000069
M734.106140,55.063427
	C732.372864,54.520836 730.673645,53.795307 728.900757,53.465424
	C717.619202,51.366192 706.967590,59.347496 705.826172,70.676163
	C704.601318,82.832596 713.243774,92.860237 725.083740,93.020325
	C733.924683,93.139854 742.216187,87.128792 744.689636,78.806625
	C747.369690,69.789444 743.764343,61.280724 734.106140,55.063427
M580.945435,78.360123
	C575.632446,78.325089 570.806946,78.306183 565.981934,78.250137
	C562.388428,78.208397 560.140381,76.312607 560.285461,72.781746
	C560.418762,69.537895 562.679932,67.831482 566.026123,67.832733
	C571.955872,67.834953 577.885559,67.833359 584.465759,67.833359
	C582.578979,60.695065 578.298584,56.534130 572.347473,54.302158
	C565.309387,51.662518 558.505066,52.760979 552.702881,57.684841
	C544.799072,64.392250 543.292908,75.999352 549.012512,84.271133
	C555.046326,92.997337 565.846558,95.415657 575.477905,90.197090
	C581.682678,86.835136 584.202820,86.880943 586.033997,90.388916
	C587.765320,93.705734 586.059143,96.467598 580.218567,99.802559
	C569.134521,106.131554 554.608337,104.284401 544.604614,95.273849
	C535.202820,86.805481 532.252869,72.386711 537.493835,60.517883
	C542.709900,48.705471 555.285583,41.817490 568.126282,42.625195
	C582.159729,43.507927 594.858521,56.373562 595.908325,70.071274
	C596.384216,76.281296 594.693604,78.206528 588.423035,78.350319
	C586.094238,78.403717 583.763245,78.359833 580.945435,78.360123
M450.016968,93.764450
	C449.925262,95.722839 450.382111,97.645241 449.622589,98.611427
	C448.232605,100.379578 446.149017,102.668983 444.307678,102.711601
	C442.517334,102.753036 440.149841,100.576675 439.006805,98.762405
	C438.072113,97.278931 438.449127,94.894867 438.446442,92.909805
	C438.417389,71.439911 438.428284,49.969963 438.428284,27.735703
	C431.582245,27.735703 424.989410,27.773251 418.397522,27.711189
	C416.587677,27.694149 414.433105,27.926073 413.064148,27.056274
	C411.505768,26.066099 409.602661,23.862879 409.754669,22.382584
	C409.942993,20.548824 412.022308,18.858538 413.437805,17.240116
	C413.758636,16.873245 414.709290,16.996546 415.370056,16.996449
	C434.521332,16.993649 453.672577,17.000614 472.823853,17.014923
	C476.325104,17.017538 478.719574,18.614386 478.830231,22.236454
	C478.943390,25.939554 476.472260,27.628815 473.043549,27.679432
	C465.570374,27.789759 458.094452,27.713522 450.016998,27.713522
	C450.016998,49.777676 450.016998,71.537460 450.016968,93.764450
M835.687134,97.350533
	C835.138916,101.504112 833.156250,103.619995 829.256470,103.085747
	C825.496460,102.570641 824.604065,99.764702 824.657410,96.480659
	C824.835876,85.494370 823.988281,74.360779 825.503662,63.559986
	C827.387573,50.131935 840.898254,40.562382 854.040955,41.485542
	C868.794006,42.521816 879.929565,53.024429 880.768127,67.500359
	C881.335876,77.300751 881.010132,87.155945 880.979980,96.986305
	C880.968994,100.574272 879.471069,103.279060 875.432678,103.213669
	C871.481018,103.149673 869.945496,100.553368 869.931519,96.910942
	C869.896301,87.745949 870.030823,78.578812 869.877808,69.416206
	C869.743286,61.361309 864.289490,54.575768 857.034607,52.992371
	C848.595459,51.150509 840.617737,54.849182 837.261963,62.678341
	C836.127197,65.325523 835.856689,68.483978 835.791382,71.422104
	C835.602661,79.916512 835.719238,88.417709 835.687134,97.350533
M643.164062,41.441204
	C658.556702,40.962833 672.937073,53.534901 672.068237,72.405853
	C671.716553,80.043549 671.992371,87.711006 672.017822,95.364807
	C672.030823,99.284981 671.611023,102.938835 666.567810,103.231651
	C662.862488,103.446770 661.009216,100.799431 660.994507,95.535942
	C660.971252,87.216621 661.079712,78.895668 660.951111,70.578209
	C660.785278,59.857327 653.667236,52.441673 643.819519,52.505833
	C633.935120,52.570229 626.936279,59.903847 626.755615,70.642120
	C626.615723,78.959221 626.753418,87.280663 626.715149,95.599922
	C626.690430,100.972443 624.909668,103.340622 620.997314,103.134811
	C616.237671,102.884422 615.641663,99.488770 615.642517,95.722672
	C615.644226,87.902397 615.859131,80.074883 615.598328,72.263306
	C614.977539,53.670792 628.219910,42.058517 643.164062,41.441204
M483.081207,99.254883
	C483.315491,87.884621 482.538574,76.762001 484.258667,66.039963
	C486.518494,51.953785 500.981659,41.310135 515.291626,41.182808
	C518.870972,41.150963 521.176392,42.868584 521.328186,46.391830
	C521.488159,50.105221 518.778687,51.738033 515.498657,51.854992
	C509.350067,52.074234 504.238678,54.402012 499.925079,58.644474
	C494.971588,63.516327 493.420624,69.691231 493.370148,76.375816
	C493.319885,83.033195 493.653717,89.711891 493.191406,96.337440
	C493.036163,98.562637 491.380127,101.816681 489.624420,102.461517
	C488.031891,103.046440 485.370911,100.722321 483.081207,99.254883
M784.829346,87.981087
	C784.829590,75.002831 784.882385,62.521095 784.799744,50.040257
	C784.773193,46.022377 785.806885,42.921314 790.436829,43.000469
	C795.050354,43.079338 795.969849,46.307941 795.956177,50.238415
	C795.903442,65.382317 795.907959,80.526588 795.953430,95.670532
	C795.965149,99.582550 795.041809,102.863792 790.460999,102.980026
	C785.857361,103.096832 784.640137,100.015305 784.810181,95.965950
	C784.914795,93.474075 784.829529,90.974228 784.829346,87.981087
M790.054321,32.976456
	C785.241638,32.136578 782.805603,29.475960 783.184875,24.985590
	C783.479858,21.491915 785.700623,19.252510 789.289490,18.736973
	C793.180908,18.177975 795.663818,20.162123 797.060730,23.559427
	C798.849426,27.909233 796.305115,31.446516 790.054321,32.976456
z"/>
    <path fill="#D4C0EC" opacity="1.000000" stroke="none"
          d="
M294.204224,71.971230
	C294.204102,80.311043 294.175140,88.143440 294.216034,95.975464
	C294.237030,99.998909 292.932587,103.025925 288.385864,102.949448
	C284.165314,102.878441 282.815521,99.964241 282.814972,96.187912
	C282.811371,72.024765 282.817871,47.861626 282.813049,23.698481
	C282.812256,19.746716 284.616394,17.112206 288.667786,17.151789
	C292.798615,17.192148 294.243744,20.013210 294.221619,23.897028
	C294.164917,33.853111 294.202698,43.809727 294.202698,54.013882
	C311.263885,54.013882 327.881531,54.013882 345.267822,54.013882
	C345.267822,48.304356 345.267120,42.549126 345.268036,36.793896
	C345.268738,32.461178 345.180756,28.125944 345.300690,23.796497
	C345.405518,20.012138 347.121460,17.192842 351.215637,17.165911
	C355.525116,17.137560 356.749847,20.321648 356.827271,23.964659
	C356.944153,29.461418 356.858856,34.962479 356.858917,40.461712
	C356.859070,58.125916 356.864471,75.790123 356.850006,93.454315
	C356.848633,95.117775 357.336761,97.237511 356.516357,98.343033
	C355.106720,100.242523 352.941223,102.520714 350.908905,102.715096
	C349.340515,102.865120 346.320587,100.286346 345.993256,98.537613
	C345.147034,94.016502 345.347870,89.284454 345.288574,84.634621
	C345.206146,78.167091 345.267822,71.697723 345.267822,64.898987
	C328.163086,64.898987 311.449524,64.898987 294.204315,64.898987
	C294.204315,67.239548 294.204315,69.351601 294.204224,71.971230
M197.531097,49.778423
	C193.865036,62.889057 196.293869,74.229950 205.741608,83.656136
	C215.078461,92.971649 226.336868,95.092560 238.877075,91.850067
	C243.146027,90.746262 245.893326,89.026733 245.282532,83.699570
	C244.679245,78.437836 245.150742,73.052872 245.150742,67.010445
	C240.443558,67.010445 235.843521,66.935966 231.247131,67.033340
	C227.368713,67.115509 224.362961,65.692329 224.320084,61.610821
	C224.277847,57.589085 227.143829,55.935955 231.068573,55.973927
	C237.234604,56.033577 243.401642,55.993774 249.568253,55.990017
	C254.097855,55.987259 256.220734,58.245369 256.194244,62.770855
	C256.139587,72.103783 256.430237,81.449036 255.998306,90.762291
	C255.888840,93.122749 254.170258,96.208061 252.220215,97.561203
	C230.404236,112.699310 196.924484,101.454704 187.816895,75.995735
	C181.668411,58.808464 184.463470,43.001110 197.093277,29.761505
	C209.384766,16.876549 224.722870,13.125016 241.876419,17.818979
	C245.811172,18.895700 249.529480,20.994780 253.125595,23.017656
	C257.402466,25.423466 258.757599,29.063599 256.666687,31.902563
	C253.924194,35.626186 250.618240,34.592316 247.436722,32.493671
	C239.185364,27.050800 230.218475,25.565691 220.736877,28.022734
	C209.296463,30.987381 201.591721,38.199856 197.531097,49.778423
z"/>
</svg>
